<svg height="1262" width="720" xmlns="http://www.w3.org/2000/svg">
<rect height="1262" fill="#555" width="720"></rect>
<text fill="#7f7" font-family="Courier New" font-size="12" xml:space="preserve">
<tspan x="10" y="26">└─┬ gulp-angular-htmlify@2.3.0 </tspan>
<tspan x="10" y="42">  ├─┬ angular-html5@2.5.0 </tspan>
<tspan x="10" y="58">  │ ├─┬ cheerio@0.19.0 </tspan>
<tspan x="10" y="74">  │ │ ├─┬ css-select@1.0.0 </tspan>
<tspan x="10" y="90">  │ │ │ ├── boolbase@1.0.0 </tspan>
<tspan x="10" y="106">  │ │ │ ├── css-what@1.0.0 </tspan>
<tspan x="10" y="122">  │ │ │ ├── domutils@1.4.3 </tspan>
<tspan x="10" y="138">  │ │ │ └── nth-check@1.0.1 </tspan>
<tspan x="10" y="154">  │ │ ├─┬ dom-serializer@0.1.0 </tspan>
<tspan x="10" y="170">  │ │ │ └── domelementtype@1.1.3 </tspan>
<tspan x="10" y="186">  │ │ ├── entities@1.1.1 </tspan>
<tspan x="10" y="202">  │ │ ├─┬ htmlparser2@3.8.3 </tspan>
<tspan x="10" y="218">  │ │ │ ├── domelementtype@1.3.0 </tspan>
<tspan x="10" y="234">  │ │ │ ├── domhandler@2.3.0 </tspan>
<tspan x="10" y="250">  │ │ │ ├── domutils@1.5.1 </tspan>
<tspan x="10" y="266">  │ │ │ ├── entities@1.0.0 </tspan>
<tspan x="10" y="282">  │ │ │ └── readable-stream@1.1.14 </tspan>
<tspan x="10" y="298">  │ │ └── lodash@3.10.1 </tspan>
<tspan x="10" y="314">  │ ├─┬ commander@2.9.0 </tspan>
<tspan x="10" y="330">  │ │ └── graceful-readlink@1.0.1 </tspan>
<tspan x="10" y="346">  │ ├── get-stdin@4.0.1 </tspan>
<tspan x="10" y="362">  │ └── log-symbols@1.0.2 </tspan>
<tspan x="10" y="378">  ├─┬ gulp-util@3.0.8 </tspan>
<tspan x="10" y="394">  │ ├── array-differ@1.0.0 </tspan>
<tspan x="10" y="410">  │ ├── array-uniq@1.0.3 </tspan>
<tspan x="10" y="426">  │ ├── beeper@1.1.1 </tspan>
<tspan x="10" y="442">  │ ├─┬ chalk@1.1.3 </tspan>
<tspan x="10" y="458">  │ │ ├── ansi-styles@2.2.1 </tspan>
<tspan x="10" y="474">  │ │ ├── escape-string-regexp@1.0.5 </tspan>
<tspan x="10" y="490">  │ │ ├─┬ has-ansi@2.0.0 </tspan>
<tspan x="10" y="506">  │ │ │ └── ansi-regex@2.1.1 </tspan>
<tspan x="10" y="522">  │ │ ├── strip-ansi@3.0.1 </tspan>
<tspan x="10" y="538">  │ │ └── supports-color@2.0.0 </tspan>
<tspan x="10" y="554">  │ ├── dateformat@2.0.0 </tspan>
<tspan x="10" y="570">  │ ├─┬ fancy-log@1.3.0 </tspan>
<tspan x="10" y="586">  │ │ └── time-stamp@1.0.1 </tspan>
<tspan x="10" y="602">  │ ├─┬ gulplog@1.0.0 </tspan>
<tspan x="10" y="618">  │ │ └── glogg@1.0.0 </tspan>
<tspan x="10" y="634">  │ ├─┬ has-gulplog@0.1.0 </tspan>
<tspan x="10" y="650">  │ │ └── sparkles@1.0.0 </tspan>
<tspan x="10" y="666">  │ ├── lodash._reescape@3.0.0 </tspan>
<tspan x="10" y="682">  │ ├── lodash._reevaluate@3.0.0 </tspan>
<tspan x="10" y="698">  │ ├── lodash._reinterpolate@3.0.0 </tspan>
<tspan x="10" y="714">  │ ├─┬ lodash.template@3.6.2 </tspan>
<tspan x="10" y="730">  │ │ ├── lodash._basecopy@3.0.1 </tspan>
<tspan x="10" y="746">  │ │ ├── lodash._basetostring@3.0.1 </tspan>
<tspan x="10" y="762">  │ │ ├── lodash._basevalues@3.0.0 </tspan>
<tspan x="10" y="778">  │ │ ├── lodash._isiterateecall@3.0.9 </tspan>
<tspan x="10" y="794">  │ │ ├─┬ lodash.escape@3.2.0 </tspan>
<tspan x="10" y="810">  │ │ │ └── lodash._root@3.0.1 </tspan>
<tspan x="10" y="826">  │ │ ├─┬ lodash.keys@3.1.2 </tspan>
<tspan x="10" y="842">  │ │ │ ├── lodash._getnative@3.9.1 </tspan>
<tspan x="10" y="858">  │ │ │ ├── lodash.isarguments@3.1.0 </tspan>
<tspan x="10" y="874">  │ │ │ └── lodash.isarray@3.0.4 </tspan>
<tspan x="10" y="890">  │ │ ├── lodash.restparam@3.6.1 </tspan>
<tspan x="10" y="906">  │ │ └── lodash.templatesettings@3.1.1 </tspan>
<tspan x="10" y="922">  │ ├── minimist@1.2.0 </tspan>
<tspan x="10" y="938">  │ ├─┬ multipipe@0.1.2 </tspan>
<tspan x="10" y="954">  │ │ └── duplexer2@0.0.2 </tspan>
<tspan x="10" y="970">  │ ├── object-assign@3.0.0 </tspan>
<tspan x="10" y="986">  │ ├── replace-ext@0.0.1 </tspan>
<tspan x="10" y="1002">  │ ├─┬ through2@2.0.3 </tspan>
<tspan x="10" y="1018">  │ │ └─┬ readable-stream@2.2.6 </tspan>
<tspan x="10" y="1034">  │ │   ├── buffer-shims@1.0.0 </tspan>
<tspan x="10" y="1050">  │ │   ├── isarray@1.0.0 </tspan>
<tspan x="10" y="1066">  │ │   ├── process-nextick-args@1.0.7 </tspan>
<tspan x="10" y="1082">  │ │   └── util-deprecate@1.0.2 </tspan>
<tspan x="10" y="1098">  │ └─┬ vinyl@0.5.3 </tspan>
<tspan x="10" y="1114">  │   ├── clone@1.0.2 </tspan>
<tspan x="10" y="1130">  │   └── clone-stats@0.0.1 </tspan>
<tspan x="10" y="1146">  └─┬ through2@0.6.5 </tspan>
<tspan x="10" y="1162">    ├─┬ readable-stream@1.0.34 </tspan>
<tspan x="10" y="1178">    │ ├── core-util-is@1.0.2 </tspan>
<tspan x="10" y="1194">    │ ├── inherits@2.0.3 </tspan>
<tspan x="10" y="1210">    │ ├── isarray@0.0.1 </tspan>
<tspan x="10" y="1226">    │ └── string_decoder@0.10.31 </tspan>
<tspan x="10" y="1242">    └── xtend@4.0.1</tspan>
</text>
</svg>
